<svg width="21" height="29.7"><rect width="100%" height="100%" fill="white" /><text><tspan x="1" y="2" font-size="1" textLength="6">Name: </tspan></text><rect x="8" y="1" width="1" height="1" style="fill:rgb(255,255,255);stroke-width:0.1;stroke:rgb(0,0,0)" /><rect x="9.2" y="1" width="1" height="1" style="fill:rgb(255,255,255);stroke-width:0.1;stroke:rgb(0,0,0)" /><rect x="10.4" y="1" width="1" height="1" style="fill:rgb(255,255,255);stroke-width:0.1;stroke:rgb(0,0,0)" /><rect x="11.6" y="1" width="1" height="1" style="fill:rgb(255,255,255);stroke-width:0.1;stroke:rgb(0,0,0)" /><rect x="12.8" y="1" width="1" height="1" style="fill:rgb(255,255,255);stroke-width:0.1;stroke:rgb(0,0,0)" /><rect x="14" y="1" width="1" height="1" style="fill:rgb(255,255,255);stroke-width:0.1;stroke:rgb(0,0,0)" /><rect x="15.2" y="1" width="1" height="1" style="fill:rgb(255,255,255);stroke-width:0.1;stroke:rgb(0,0,0)" /><rect x="16.4" y="1" width="1" height="1" style="fill:rgb(255,255,255);stroke-width:0.1;stroke:rgb(0,0,0)" /><rect x="17.6" y="1" width="1" height="1" style="fill:rgb(255,255,255);stroke-width:0.1;stroke:rgb(0,0,0)" /><rect x="18.799999999999997" y="1" width="1" height="1" style="fill:rgb(255,255,255);stroke-width:0.1;stroke:rgb(0,0,0)" /><text><tspan x="1" y="3.5" font-size="1" textLength="6">Surname: </tspan></text><rect x="8" y="2.5" width="1" height="1" style="fill:rgb(255,255,255);stroke-width:0.1;stroke:rgb(0,0,0)" /><rect x="9.2" y="2.5" width="1" height="1" style="fill:rgb(255,255,255);stroke-width:0.1;stroke:rgb(0,0,0)" /><rect x="10.4" y="2.5" width="1" height="1" style="fill:rgb(255,255,255);stroke-width:0.1;stroke:rgb(0,0,0)" /><rect x="11.6" y="2.5" width="1" height="1" style="fill:rgb(255,255,255);stroke-width:0.1;stroke:rgb(0,0,0)" /><rect x="12.8" y="2.5" width="1" height="1" style="fill:rgb(255,255,255);stroke-width:0.1;stroke:rgb(0,0,0)" /><rect x="14" y="2.5" width="1" height="1" style="fill:rgb(255,255,255);stroke-width:0.1;stroke:rgb(0,0,0)" /><rect x="15.2" y="2.5" width="1" height="1" style="fill:rgb(255,255,255);stroke-width:0.1;stroke:rgb(0,0,0)" /><rect x="16.4" y="2.5" width="1" height="1" style="fill:rgb(255,255,255);stroke-width:0.1;stroke:rgb(0,0,0)" /><rect x="17.6" y="2.5" width="1" height="1" style="fill:rgb(255,255,255);stroke-width:0.1;stroke:rgb(0,0,0)" /><rect x="18.799999999999997" y="2.5" width="1" height="1" style="fill:rgb(255,255,255);stroke-width:0.1;stroke:rgb(0,0,0)" /><text><tspan x="1" y="5" font-size="1" textLength="6">Gender: </tspan></text><text><tspan x="9.5" y="5" font-size="1" textLength="1">M</tspan></text><rect x="8" y="4" width="1" height="1" style="fill:rgb(255,255,255);stroke-width:0.1;stroke:rgb(0,0,0)" /><text><tspan x="15.5" y="5" font-size="1" textLength="1">F</tspan></text><rect x="14" y="4" width="1" height="1" style="fill:rgb(255,255,255);stroke-width:0.1;stroke:rgb(0,0,0)" /><text><tspan x="1" y="6.5" font-size="1" textLength="6">Photo: </tspan></text><rect x="8" y="5.5" width="3" height="4" style="fill:rgb(255,255,255);stroke-width:0.1;stroke:rgb(0,0,0)" /><text><tspan x="1" y="27" font-size="1" textLength="6">Signature: </tspan></text><rect x="8" y="26" width="4" height="2" style="fill:rgb(255,255,255);stroke-width:0.1;stroke:rgb(0,0,0)" /></svg>