<svg font-family="Arial, Helvetica, sans-serif" width="2481" height="3508"><rect width="100%" height="100%" fill="white" /><text><tspan x="119" y="237" font-size="119" font-family="Arial, Helvetica, monospace" textLength="709">Name: </tspan></text><rect x="945" y="119" width="119" height="119" style="fill:rgb(255,255,255);stroke-width:12;stroke:rgb(0,0,0)" /><rect x="1088" y="119" width="119" height="119" style="fill:rgb(255,255,255);stroke-width:12;stroke:rgb(0,0,0)" /><rect x="1231" y="119" width="119" height="119" style="fill:rgb(255,255,255);stroke-width:12;stroke:rgb(0,0,0)" /><rect x="1374" y="119" width="119" height="119" style="fill:rgb(255,255,255);stroke-width:12;stroke:rgb(0,0,0)" /><rect x="1517" y="119" width="119" height="119" style="fill:rgb(255,255,255);stroke-width:12;stroke:rgb(0,0,0)" /><rect x="1660" y="119" width="119" height="119" style="fill:rgb(255,255,255);stroke-width:12;stroke:rgb(0,0,0)" /><rect x="1803" y="119" width="119" height="119" style="fill:rgb(255,255,255);stroke-width:12;stroke:rgb(0,0,0)" /><rect x="1946" y="119" width="119" height="119" style="fill:rgb(255,255,255);stroke-width:12;stroke:rgb(0,0,0)" /><rect x="2089" y="119" width="119" height="119" style="fill:rgb(255,255,255);stroke-width:12;stroke:rgb(0,0,0)" /><rect x="2232" y="119" width="119" height="119" style="fill:rgb(255,255,255);stroke-width:12;stroke:rgb(0,0,0)" /><text><tspan x="119" y="414" font-size="119" font-family="Arial, Helvetica, monospace" textLength="709">Surname: </tspan></text><rect x="945" y="296" width="119" height="119" style="fill:rgb(255,255,255);stroke-width:12;stroke:rgb(0,0,0)" /><rect x="1088" y="296" width="119" height="119" style="fill:rgb(255,255,255);stroke-width:12;stroke:rgb(0,0,0)" /><rect x="1231" y="296" width="119" height="119" style="fill:rgb(255,255,255);stroke-width:12;stroke:rgb(0,0,0)" /><rect x="1374" y="296" width="119" height="119" style="fill:rgb(255,255,255);stroke-width:12;stroke:rgb(0,0,0)" /><rect x="1517" y="296" width="119" height="119" style="fill:rgb(255,255,255);stroke-width:12;stroke:rgb(0,0,0)" /><rect x="1660" y="296" width="119" height="119" style="fill:rgb(255,255,255);stroke-width:12;stroke:rgb(0,0,0)" /><rect x="1803" y="296" width="119" height="119" style="fill:rgb(255,255,255);stroke-width:12;stroke:rgb(0,0,0)" /><rect x="1946" y="296" width="119" height="119" style="fill:rgb(255,255,255);stroke-width:12;stroke:rgb(0,0,0)" /><rect x="2089" y="296" width="119" height="119" style="fill:rgb(255,255,255);stroke-width:12;stroke:rgb(0,0,0)" /><rect x="2232" y="296" width="119" height="119" style="fill:rgb(255,255,255);stroke-width:12;stroke:rgb(0,0,0)" /><text><tspan x="119" y="591" font-size="119" font-family="Arial, Helvetica, monospace" textLength="709">Gender: </tspan></text><rect x="945" y="473" width="119" height="119" style="fill:rgb(255,255,255);stroke-width:12;stroke:rgb(0,0,0)" /><text><tspan x="1123" y="591" font-size="119" font-family="Arial, Helvetica, monospace" textLength="119">M</tspan></text><rect x="1654" y="473" width="119" height="119" style="fill:rgb(255,255,255);stroke-width:12;stroke:rgb(0,0,0)" /><text><tspan x="1831" y="591" font-size="119" font-family="Arial, Helvetica, monospace" textLength="119">F</tspan></text><text><tspan x="119" y="3189" font-size="119" font-family="Arial, Helvetica, monospace" textLength="709">Signature: </tspan></text><rect x="945" y="3071" width="473" height="237" style="fill:rgb(255,255,255);stroke-width:12;stroke:rgb(0,0,0)" /></svg>