<svg font-family="Arial, Helvetica, sans-serif" width="2481" height="3508"><rect width="100%" height="100%" fill="white" /><text><tspan x="119" y="473" font-size="119" font-family="Arial, Helvetica, monospace" textLength="709">Name: </tspan></text><rect x="945" y="355" width="119" height="119" style="fill:rgb(255,255,255);stroke-width:12;stroke:rgb(0,0,0)" /><rect x="1088" y="355" width="119" height="119" style="fill:rgb(255,255,255);stroke-width:12;stroke:rgb(0,0,0)" /><rect x="1231" y="355" width="119" height="119" style="fill:rgb(255,255,255);stroke-width:12;stroke:rgb(0,0,0)" /><rect x="1374" y="355" width="119" height="119" style="fill:rgb(255,255,255);stroke-width:12;stroke:rgb(0,0,0)" /><rect x="1517" y="355" width="119" height="119" style="fill:rgb(255,255,255);stroke-width:12;stroke:rgb(0,0,0)" /><rect x="1660" y="355" width="119" height="119" style="fill:rgb(255,255,255);stroke-width:12;stroke:rgb(0,0,0)" /><rect x="1803" y="355" width="119" height="119" style="fill:rgb(255,255,255);stroke-width:12;stroke:rgb(0,0,0)" /><rect x="1946" y="355" width="119" height="119" style="fill:rgb(255,255,255);stroke-width:12;stroke:rgb(0,0,0)" /><rect x="2089" y="355" width="119" height="119" style="fill:rgb(255,255,255);stroke-width:12;stroke:rgb(0,0,0)" /><rect x="2232" y="355" width="119" height="119" style="fill:rgb(255,255,255);stroke-width:12;stroke:rgb(0,0,0)" /><text><tspan x="119" y="650" font-size="119" font-family="Arial, Helvetica, monospace" textLength="709">Surname: </tspan></text><rect x="945" y="532" width="119" height="119" style="fill:rgb(255,255,255);stroke-width:12;stroke:rgb(0,0,0)" /><rect x="1088" y="532" width="119" height="119" style="fill:rgb(255,255,255);stroke-width:12;stroke:rgb(0,0,0)" /><rect x="1231" y="532" width="119" height="119" style="fill:rgb(255,255,255);stroke-width:12;stroke:rgb(0,0,0)" /><rect x="1374" y="532" width="119" height="119" style="fill:rgb(255,255,255);stroke-width:12;stroke:rgb(0,0,0)" /><rect x="1517" y="532" width="119" height="119" style="fill:rgb(255,255,255);stroke-width:12;stroke:rgb(0,0,0)" /><rect x="1660" y="532" width="119" height="119" style="fill:rgb(255,255,255);stroke-width:12;stroke:rgb(0,0,0)" /><rect x="1803" y="532" width="119" height="119" style="fill:rgb(255,255,255);stroke-width:12;stroke:rgb(0,0,0)" /><rect x="1946" y="532" width="119" height="119" style="fill:rgb(255,255,255);stroke-width:12;stroke:rgb(0,0,0)" /><rect x="2089" y="532" width="119" height="119" style="fill:rgb(255,255,255);stroke-width:12;stroke:rgb(0,0,0)" /><rect x="2232" y="532" width="119" height="119" style="fill:rgb(255,255,255);stroke-width:12;stroke:rgb(0,0,0)" /><text><tspan x="119" y="827" font-size="119" font-family="Arial, Helvetica, monospace" textLength="709">Gender: </tspan></text><rect x="945" y="709" width="119" height="119" style="fill:rgb(255,255,255);stroke-width:12;stroke:rgb(0,0,0)" /><text><tspan x="1123" y="827" font-size="119" font-family="Arial, Helvetica, monospace" textLength="119">M</tspan></text><rect x="1654" y="709" width="119" height="119" style="fill:rgb(255,255,255);stroke-width:12;stroke:rgb(0,0,0)" /><text><tspan x="1831" y="827" font-size="119" font-family="Arial, Helvetica, monospace" textLength="119">F</tspan></text><text><tspan x="119" y="2953" font-size="119" font-family="Arial, Helvetica, monospace" textLength="709">Signature: </tspan></text><rect x="945" y="2835" width="473" height="237" style="fill:rgb(255,255,255);stroke-width:12;stroke:rgb(0,0,0)" /><rect x="119" y="119" width="178" height="178" style="fill:rgb(255,255,255);stroke-width:12;stroke:rgb(0,0,0)" /><rect x="2186" y="119" width="178" height="178" style="fill:rgb(255,255,255);stroke-width:12;stroke:rgb(0,0,0)" /><rect x="119" y="3213" width="178" height="178" style="fill:rgb(255,255,255);stroke-width:12;stroke:rgb(0,0,0)" /><rect x="2186" y="3213" width="178" height="178" style="fill:rgb(255,255,255);stroke-width:12;stroke:rgb(0,0,0)" /></svg>